<mxfile host="app.diagrams.net" modified="2022-03-04T00:38:11.296Z" agent="5.0 (Windows NT 10.0; Win64; x64) AppleWebKit/537.36 (KHTML, like Gecko) Chrome/99.0.4844.51 Safari/537.36" etag="uSShoewNEv4kg3UzhNao" version="16.6.5" type="github">
  <diagram name="Page-1" id="e7e014a7-5840-1c2e-5031-d8a46d1fe8dd">
    <mxGraphModel dx="1422" dy="832" grid="1" gridSize="10" guides="1" tooltips="1" connect="1" arrows="1" fold="1" page="1" pageScale="1" pageWidth="1169" pageHeight="826" background="none" math="0" shadow="0">
      <root>
        <mxCell id="0" />
        <mxCell id="1" parent="0" />
        <mxCell id="3" value="Club admin(finding out whose coming Tuesday)" style="swimlane;whiteSpace=wrap" parent="1" vertex="1">
          <mxGeometry x="444.5" y="128" width="280" height="570" as="geometry" />
        </mxCell>
        <mxCell id="13" value="" style="ellipse;shape=startState;fillColor=#000000;strokeColor=#ff0000;" parent="3" vertex="1">
          <mxGeometry x="60" y="40" width="30" height="30" as="geometry" />
        </mxCell>
        <mxCell id="14" value="" style="edgeStyle=elbowEdgeStyle;elbow=horizontal;verticalAlign=bottom;endArrow=open;endSize=8;strokeColor=#FF0000;endFill=1;rounded=0" parent="3" source="13" target="15" edge="1">
          <mxGeometry x="40" y="20" as="geometry">
            <mxPoint x="55" y="90" as="targetPoint" />
          </mxGeometry>
        </mxCell>
        <mxCell id="15" value="Raw Data" style="" parent="3" vertex="1">
          <mxGeometry x="20" y="110" width="110" height="50" as="geometry" />
        </mxCell>
        <mxCell id="16" value="Adds Tuesday filter" style="" parent="3" vertex="1">
          <mxGeometry x="20" y="220" width="110" height="50" as="geometry" />
        </mxCell>
        <mxCell id="17" value="" style="endArrow=open;strokeColor=#FF0000;endFill=1;rounded=0;exitX=0.505;exitY=1.04;exitDx=0;exitDy=0;exitPerimeter=0;entryX=0.486;entryY=-0.02;entryDx=0;entryDy=0;entryPerimeter=0;" parent="3" source="15" target="16" edge="1">
          <mxGeometry relative="1" as="geometry">
            <mxPoint x="75.5" y="182" as="sourcePoint" />
          </mxGeometry>
        </mxCell>
        <mxCell id="18" value="Writes down &#xa;all names" style="" parent="3" vertex="1">
          <mxGeometry x="20" y="325" width="110" height="50" as="geometry" />
        </mxCell>
        <mxCell id="19" value="" style="endArrow=open;strokeColor=#FF0000;endFill=1;rounded=0;exitX=0.568;exitY=0.98;exitDx=0;exitDy=0;exitPerimeter=0;entryX=0.568;entryY=0;entryDx=0;entryDy=0;entryPerimeter=0;" parent="3" source="16" target="18" edge="1">
          <mxGeometry relative="1" as="geometry" />
        </mxCell>
        <mxCell id="30" value="Makes a Table &#xa;With names&#xa;And age groups" style="" parent="3" vertex="1">
          <mxGeometry x="165.5" y="312" width="110" height="50" as="geometry" />
        </mxCell>
        <mxCell id="-C_sTCVN9P2RZHHLDyrR-43" value="Creates a Schedule &#xa;from manually&#xa;Created table" style="" vertex="1" parent="3">
          <mxGeometry x="170" y="432" width="110" height="50" as="geometry" />
        </mxCell>
        <mxCell id="-C_sTCVN9P2RZHHLDyrR-44" value="" style="endArrow=open;strokeColor=#FF0000;endFill=1;rounded=0;exitX=0.505;exitY=0.94;exitDx=0;exitDy=0;exitPerimeter=0;entryX=0.482;entryY=0;entryDx=0;entryDy=0;entryPerimeter=0;" edge="1" parent="3" source="30" target="-C_sTCVN9P2RZHHLDyrR-43">
          <mxGeometry relative="1" as="geometry">
            <mxPoint x="85" y="280" as="sourcePoint" />
            <mxPoint x="85" y="335" as="targetPoint" />
          </mxGeometry>
        </mxCell>
        <mxCell id="-C_sTCVN9P2RZHHLDyrR-45" value="" style="endArrow=open;strokeColor=#FF0000;endFill=1;rounded=0;exitX=1.005;exitY=0.52;exitDx=0;exitDy=0;exitPerimeter=0;entryX=0.005;entryY=0.58;entryDx=0;entryDy=0;entryPerimeter=0;" edge="1" parent="3" source="18" target="30">
          <mxGeometry relative="1" as="geometry">
            <mxPoint x="-42.51999999999998" y="142" as="sourcePoint" />
            <mxPoint x="30.549999999999955" y="156" as="targetPoint" />
          </mxGeometry>
        </mxCell>
        <mxCell id="2" value="Customer" style="swimlane;whiteSpace=wrap" parent="1" vertex="1">
          <mxGeometry x="214.5" y="130" width="230" height="190" as="geometry" />
        </mxCell>
        <mxCell id="5" value="" style="ellipse;shape=startState;fillColor=#000000;strokeColor=#ff0000;" parent="2" vertex="1">
          <mxGeometry x="100" y="40" width="30" height="30" as="geometry" />
        </mxCell>
        <mxCell id="10" value="Adds Personal Data" style="" parent="2" vertex="1">
          <mxGeometry x="65.5" y="110" width="110" height="50" as="geometry" />
        </mxCell>
        <mxCell id="11" value="" style="endArrow=open;strokeColor=#FF0000;endFill=1;rounded=0;entryX=0.5;entryY=-0.08;entryDx=0;entryDy=0;entryPerimeter=0;" parent="2" source="5" target="10" edge="1">
          <mxGeometry relative="1" as="geometry">
            <mxPoint x="115" y="270" as="sourcePoint" />
            <mxPoint x="115.5" y="120" as="targetPoint" />
            <Array as="points">
              <mxPoint x="115.5" y="110" />
            </Array>
          </mxGeometry>
        </mxCell>
        <mxCell id="20" value="" style="endArrow=open;strokeColor=#FF0000;endFill=1;rounded=0;exitX=1.018;exitY=0.4;exitDx=0;exitDy=0;exitPerimeter=0;entryX=0.005;entryY=0.72;entryDx=0;entryDy=0;entryPerimeter=0;" parent="1" source="10" target="15" edge="1">
          <mxGeometry relative="1" as="geometry">
            <mxPoint x="470" y="263" as="targetPoint" />
          </mxGeometry>
        </mxCell>
      </root>
    </mxGraphModel>
  </diagram>
</mxfile>
